# xmcd
#
# Track frame offsets:
#	150
#	19305
#	37707
#	52532
#	70347
#	87425
#	106217
#	124632
#	145075
#	159677
#	177187
#
# Disc length: 2584 seconds
#
# Revision: 0
# Processed by: cddbd v1.5.2PL0 Copyright (c) Steve Scherf et al.
# Submitted via: audiograbber 1.83.01
#
DISCID=840a160b
DTITLE=Jim Morris - One Man Party
DYEAR=2008
DGENRE=Trop Rock
TTITLE0=Premature Intoxication
TTITLE1=One Man Party
TTITLE2=I Wish You Were Here
TTITLE3=Suntan Lotion #9
TTITLE4=I Don't Know Where I Am
TTITLE5=We Were Kinda Crazy Then
TTITLE6=Wanted For Love
TTITLE7=Vanish In The Sun
TTITLE8=When I'm Sailing
TTITLE9=Running Out Of Lies
TTITLE10=Watching The Storm Roll In
EXTD=
EXTT0=
EXTT1=
EXTT2=
EXTT3=
EXTT4=
EXTT5=
EXTT6=
EXTT7=
EXTT8=
EXTT9=
EXTT10=
PLAYORDER=
